<svg width="192" height="112" viewBox="0 0 192 112" fill="none" xmlns="http://www.w3.org/2000/svg">
<g filter="url(#filter0_d_1_452)">
<path d="M16 16C16 13.7909 17.7909 12 20 12H172C174.209 12 176 13.7909 176 16V88C176 90.2091 174.209 92 172 92H20C17.7909 92 16 90.2091 16 88V16Z" fill="white"/>
</g>
<path d="M16 16C16 13.7909 17.7909 12 20 12H96V92H20C17.7909 92 16 90.2091 16 88V16Z" fill="#4A99D3"/>
<path d="M64 42L54 52L64 62L62 66L48 52L62 38L64 42Z" fill="white"/>
<path d="M128 62L138 52L128 42L130 38L144 52L130 66L128 62Z" fill="#4A99D3"/>
<defs>
<filter id="filter0_d_1_452" x="0" y="0" width="192" height="112" filterUnits="userSpaceOnUse" color-interpolation-filters="sRGB">
<feFlood flood-opacity="0" result="BackgroundImageFix"/>
<feColorMatrix in="SourceAlpha" type="matrix" values="0 0 0 0 0 0 0 0 0 0 0 0 0 0 0 0 0 0 127 0" result="hardAlpha"/>
<feOffset dy="4"/>
<feGaussianBlur stdDeviation="8"/>
<feColorMatrix type="matrix" values="0 0 0 0 0 0 0 0 0 0 0 0 0 0 0 0 0 0 0.08 0"/>
<feBlend mode="normal" in2="BackgroundImageFix" result="effect1_dropShadow_1_452"/>
<feBlend mode="normal" in="SourceGraphic" in2="effect1_dropShadow_1_452" result="shape"/>
</filter>
</defs>
</svg>
