<svg width="180" height="61" viewBox="0 0 180 61" fill="none" xmlns="http://www.w3.org/2000/svg">
<rect y="0.84375" width="180" height="60.1562" rx="5" fill="#4A99D3"/>
<path fill-rule="evenodd" clip-rule="evenodd" d="M46.5702 30.0587C46.5367 26.3759 49.6201 24.5838 49.7619 24.5002C48.015 21.9824 45.3085 21.6388 44.3575 21.611C42.0841 21.3746 39.8792 22.956 38.7208 22.956C37.5396 22.956 35.7571 21.6346 33.8343 21.6731C31.3615 21.7103 29.0476 23.1267 27.7788 25.3252C25.1599 29.8087 27.1134 36.3972 29.6218 40.0214C30.8771 41.7957 32.3432 43.7778 34.2632 43.7078C36.1411 43.6313 36.8429 42.5242 39.1091 42.5242C41.3546 42.5242 42.0136 43.7078 43.9713 43.6635C45.9875 43.6313 47.2556 41.8806 48.4667 40.09C49.9172 38.0557 50.4999 36.0522 50.5227 35.9493C50.4757 35.9329 46.6087 34.4736 46.5702 30.0587ZM42.8721 19.2274C43.8823 17.9775 44.5733 16.2789 44.3817 14.554C42.9198 14.6182 41.091 15.5539 40.0388 16.7753C39.1069 17.8525 38.2748 19.6167 38.49 21.276C40.1321 21.3974 41.8184 20.4567 42.8721 19.2274ZM69.2536 37.1114L67.9535 33.1401C67.816 32.7344 67.5581 31.7787 67.1776 30.2751H67.1313C66.9008 31.2334 66.6574 32.1884 66.4011 33.1401L65.1237 37.1114H69.2536ZM73.749 43.4528H71.1244L69.6868 38.9857H64.6899L63.3199 43.4528H60.7645L65.7158 28.2444H68.7735L73.749 43.4528ZM83.9715 37.9243C83.9715 36.8564 83.7286 35.9765 83.2406 35.2843C82.7084 34.5615 81.9924 34.2008 81.0962 34.2008C80.4878 34.2008 79.9349 34.4015 79.4419 34.7986C78.9475 35.1986 78.6241 35.72 78.473 36.3672C78.3961 36.6693 78.3583 36.9157 78.3583 37.11V38.9386C78.3583 39.7364 78.6056 40.41 79.1 40.9599C79.5944 41.5092 80.237 41.7835 81.0278 41.7835C81.9561 41.7835 82.6777 41.4292 83.195 40.7228C83.7122 40.0157 83.9715 39.0828 83.9715 37.9243ZM86.4813 37.835C86.4813 39.7 85.972 41.1742 84.9525 42.2564C84.0392 43.2199 82.9057 43.7013 81.5521 43.7013C80.0917 43.7013 79.0423 43.1821 78.4032 42.1442H78.3569V47.9213H75.8927V36.0965C75.8927 34.9243 75.862 33.7208 75.8015 32.4865H77.9687L78.1062 34.2243H78.1525C78.9739 32.9151 80.2213 32.2615 81.8948 32.2615C83.2028 32.2615 84.2949 32.7722 85.1684 33.7951C86.0446 34.8186 86.4813 36.165 86.4813 37.835ZM96.7266 37.9243C96.7266 36.8564 96.483 35.9765 95.995 35.2843C95.4621 34.5615 94.7497 34.2008 93.8513 34.2008C93.2422 34.2008 92.6908 34.4015 92.1964 34.7986C91.702 35.1986 91.3792 35.72 91.2275 36.3672C91.1527 36.6693 91.1135 36.9157 91.1135 37.11V38.9386C91.1135 39.7364 91.3607 40.41 91.853 40.9599C92.3481 41.5078 92.99 41.7835 93.7836 41.7835C94.7112 41.7835 95.4336 41.4292 95.9501 40.7228C96.468 40.0157 96.7266 39.0828 96.7266 37.9243ZM99.2372 37.835C99.2372 39.7 98.7271 41.1742 97.7069 42.2564C96.795 43.2199 95.6609 43.7013 94.308 43.7013C92.8475 43.7013 91.7974 43.1821 91.1591 42.1442H91.1135V47.9213H88.6492V36.0965C88.6492 34.9243 88.6186 33.7208 88.558 32.4865H90.7252L90.8627 34.2243H90.909C91.7297 32.9151 92.9765 32.2615 94.6514 32.2615C95.9579 32.2615 97.0501 32.7722 97.9263 33.7951C98.7991 34.8186 99.2372 36.165 99.2372 37.835ZM113.498 39.1878C113.498 40.4814 113.044 41.5342 112.132 42.3471C111.13 43.2349 109.735 43.6785 107.943 43.6785C106.288 43.6785 104.961 43.3628 103.957 42.7306L104.528 40.7C105.61 41.3471 106.797 41.6714 108.09 41.6714C109.017 41.6714 109.74 41.4635 110.259 41.0499C110.776 40.6357 111.033 40.0807 111.033 39.3878C111.033 38.7707 110.82 38.2507 110.394 37.8293C109.97 37.4079 109.262 37.015 108.272 36.6529C105.579 35.66 104.234 34.2051 104.234 32.2922C104.234 31.0423 104.706 30.0166 105.65 29.2187C106.59 28.4202 107.846 28.0216 109.416 28.0216C110.815 28.0216 111.977 28.2623 112.906 28.743L112.289 30.7301C111.422 30.2637 110.443 30.0301 109.346 30.0301C108.479 30.0301 107.802 30.2416 107.317 30.6623C106.906 31.0387 106.701 31.4965 106.701 32.0394C106.701 32.6408 106.936 33.1379 107.407 33.5286C107.817 33.8901 108.562 34.2808 109.643 34.7022C110.967 35.2293 111.939 35.845 112.564 36.5514C113.187 37.2557 113.498 38.1371 113.498 39.1878H113.498ZM121.645 34.3151H118.929V39.6393C118.929 40.9935 119.407 41.6699 120.367 41.6699C120.807 41.6699 121.172 41.6328 121.461 41.5571L121.529 43.4071C121.044 43.587 120.405 43.677 119.613 43.677C118.64 43.677 117.88 43.3835 117.33 42.7971C116.784 42.2099 116.509 41.2242 116.509 39.84V34.3129H114.891V32.4844H116.508V30.4758L118.929 29.7544V32.4844H121.645V34.3151ZM131.342 37.9586C131.342 36.9472 131.124 36.08 130.681 35.3558C130.165 34.4808 129.426 34.0443 128.469 34.0443C127.479 34.0443 126.727 34.4815 126.21 35.3558C125.767 36.0807 125.549 36.9614 125.549 38.0043C125.549 39.0157 125.767 39.8828 126.21 40.605C126.742 41.4807 127.487 41.9171 128.447 41.9171C129.387 41.9171 130.126 41.4714 130.659 40.5821C131.114 39.845 131.342 38.9686 131.342 37.9586ZM133.898 37.88C133.898 39.5657 133.411 40.9492 132.438 42.0314C131.417 43.1456 130.063 43.7013 128.374 43.7013C126.747 43.7013 125.451 43.1671 124.485 42.0999C123.519 41.0328 123.036 39.6857 123.036 38.0614C123.036 36.3615 123.534 34.97 124.531 33.8872C125.525 32.8044 126.868 32.2622 128.557 32.2622C130.184 32.2622 131.493 32.7958 132.482 33.8644C133.427 34.9015 133.898 36.2393 133.898 37.8793V37.88ZM141.908 34.6293C141.651 34.5834 141.391 34.5607 141.131 34.5615C140.264 34.5615 139.594 34.885 139.122 35.5329C138.712 36.1043 138.506 36.8272 138.506 37.6986V43.4528H136.044L136.067 35.94C136.067 34.6758 136.036 33.5258 135.974 32.4872H138.12L138.211 34.5858H138.279C138.539 33.8644 138.949 33.2844 139.511 32.8487C140.06 32.4565 140.653 32.2615 141.292 32.2615C141.52 32.2615 141.725 32.2772 141.908 32.3058V34.6293ZM150.578 36.8186C150.594 36.0972 150.433 35.4729 150.1 34.9458C149.673 34.2679 149.017 33.9301 148.135 33.9301C147.33 33.9301 146.675 34.2601 146.175 34.9229C145.765 35.45 145.52 36.0815 145.445 36.8179H150.578V36.8186ZM152.927 37.4507C152.927 37.8871 152.899 38.2557 152.837 38.5557H145.445C145.474 39.6393 145.832 40.4678 146.518 41.0392C147.141 41.5499 147.946 41.8064 148.936 41.8064C150.03 41.8064 151.029 41.6335 151.926 41.2871L152.312 42.9785C151.263 43.4313 150.024 43.657 148.594 43.657C146.875 43.657 145.525 43.1556 144.543 42.1556C143.562 41.1557 143.072 39.8128 143.072 38.1286C143.072 36.475 143.528 35.0979 144.442 34.0001C145.399 32.8272 146.692 32.2408 148.319 32.2408C149.918 32.2408 151.128 32.8265 151.95 33.9993C152.6 34.9308 152.927 36.0829 152.927 37.4507ZM67.1613 18.9203C67.1613 18.0489 66.9283 17.3803 66.461 16.9139C65.9943 16.4489 65.3125 16.2161 64.4142 16.2161C64.033 16.2161 63.7089 16.2411 63.4389 16.2932V21.881C63.5885 21.9038 63.8606 21.9138 64.2574 21.9138C65.1836 21.9138 65.8996 21.6588 66.4033 21.1496C66.9076 20.6396 67.1613 19.8967 67.1613 18.921V18.9203ZM68.4386 18.8875C68.4386 20.2331 68.0304 21.2453 67.2161 21.9253C66.461 22.5531 65.3888 22.8674 63.9995 22.8674C63.4077 22.8724 62.8161 22.8426 62.2278 22.7781V15.4275C62.9179 15.3208 63.6154 15.269 64.3137 15.2725C65.6374 15.2725 66.6348 15.5568 67.3073 16.1261C68.061 16.7689 68.4386 17.6896 68.4386 18.8867V18.8875ZM73.9535 20.1017C73.9535 19.6046 73.8452 19.1782 73.6286 18.8232C73.375 18.3932 73.0131 18.1782 72.5429 18.1782C72.0563 18.1782 71.6858 18.3925 71.4315 18.8225C71.2149 19.1782 71.1074 19.611 71.1074 20.1231C71.1074 20.6203 71.2156 21.0467 71.4322 21.4017C71.6944 21.8317 72.0591 22.0467 72.5308 22.0467C72.9938 22.0467 73.3565 21.8281 73.6172 21.3903C73.8416 21.0281 73.9535 20.5989 73.9535 20.1017ZM75.2102 20.0624C75.2102 20.891 74.9708 21.5696 74.4921 22.1024C73.9905 22.6503 73.3258 22.9231 72.4966 22.9231C71.6965 22.9231 71.0596 22.6617 70.5844 22.136C70.1107 21.611 69.8742 20.9496 69.8742 20.1517C69.8742 19.3174 70.1178 18.6332 70.6079 18.1018C71.0981 17.5703 71.7564 17.3039 72.5863 17.3039C73.3864 17.3039 74.029 17.5653 74.5156 18.0896C74.9779 18.5996 75.2102 19.2582 75.2102 20.0624ZM84.2892 17.4132L82.5844 22.801H81.4752L80.7685 20.4617C80.5927 19.8895 80.4467 19.3085 80.331 18.721H80.309C80.2044 19.311 80.0579 19.8927 79.8708 20.4617L79.1206 22.801H77.9993L76.3963 17.4132H77.6409L78.2572 19.9746C78.4061 20.5803 78.5286 21.1574 78.6269 21.7031H78.6483C78.7388 21.2531 78.8884 20.6796 79.0985 19.986L79.8715 17.4146H80.8582L81.5991 19.931C81.7787 20.5453 81.924 21.136 82.0359 21.7046H82.0693C82.1608 21.1071 82.2845 20.5151 82.4398 19.931L83.1009 17.4146H84.2899V17.4132H84.2892ZM90.5678 22.801H89.3567V19.7153C89.3567 18.7646 88.9919 18.2889 88.2595 18.2889C87.8998 18.2889 87.6091 18.4189 87.384 18.681C87.1625 18.937 87.0428 19.2658 87.0477 19.6046V22.7995H85.8366V18.9532C85.8366 18.4796 85.8216 17.9668 85.7924 17.4111H86.8568L86.9138 18.2539H86.9473C87.0883 17.9918 87.2985 17.7753 87.5742 17.6032C87.9049 17.4011 88.2855 17.2961 88.6727 17.3003C89.1814 17.3003 89.6039 17.4625 89.9408 17.7882C90.359 18.1875 90.5678 18.7825 90.5678 19.5739V22.801ZM92.6979 22.801H93.9083V14.9418H92.6979V22.801ZM99.7815 20.1017C99.7815 19.6046 99.6725 19.1782 99.4566 18.8232C99.2037 18.3932 98.8404 18.1782 98.3716 18.1782C97.8836 18.1782 97.5139 18.3925 97.2602 18.8225C97.0437 19.1782 96.9361 19.611 96.9361 20.1231C96.9361 20.6203 97.0444 21.0467 97.2609 21.4017C97.5231 21.8317 97.8879 22.0467 98.3595 22.0467C98.8226 22.0467 99.1838 21.8281 99.4452 21.3903C99.6703 21.0281 99.7815 20.5989 99.7815 20.1017ZM101.039 20.0624C101.039 20.891 100.8 21.5696 100.321 22.1024C99.8192 22.6503 99.1538 22.9231 98.3253 22.9231C97.5238 22.9231 96.8876 22.6617 96.4139 22.136C95.9394 21.611 95.7029 20.9496 95.7029 20.1517C95.7029 19.3174 95.9465 18.6332 96.4367 18.1018C96.9268 17.5703 97.5851 17.3039 98.4144 17.3039C99.2151 17.3039 99.8563 17.5653 100.344 18.0896C100.807 18.5996 101.039 19.2582 101.039 20.0624ZM105.643 20.9488V20.1196C104.307 20.0967 103.639 20.4589 103.639 21.2053C103.639 21.486 103.715 21.6967 103.871 21.8367C104.028 21.9774 104.226 22.0474 104.463 22.0474C104.729 22.0474 104.977 21.9638 105.204 21.7981C105.34 21.7036 105.452 21.5768 105.529 21.429C105.605 21.2812 105.645 21.1169 105.643 20.9503V20.9488ZM106.901 22.8017H105.813L105.723 22.181H105.689C105.317 22.676 104.787 22.9238 104.098 22.9238C103.584 22.9238 103.168 22.7602 102.854 22.436C102.57 22.141 102.428 21.7738 102.428 21.3388C102.428 20.6803 102.705 20.1789 103.263 19.8317C103.82 19.4839 104.604 19.3139 105.613 19.3217V19.2203C105.613 18.5103 105.236 18.156 104.481 18.156C103.944 18.156 103.47 18.2903 103.061 18.5553L102.815 17.7689C103.321 17.4589 103.946 17.3039 104.684 17.3039C106.108 17.3039 106.822 18.0468 106.822 19.5324V21.516C106.822 22.0545 106.849 22.4831 106.9 22.801L106.901 22.8017ZM112.527 20.5289V19.6303C112.527 19.4753 112.516 19.3496 112.494 19.2532C112.429 18.9706 112.275 18.7164 112.056 18.5275C111.831 18.3328 111.543 18.2284 111.246 18.2346C110.794 18.2346 110.441 18.411 110.18 18.7667C109.923 19.1217 109.792 19.576 109.792 20.1303C109.792 20.6624 109.916 21.0946 110.164 21.4274C110.426 21.7817 110.78 21.9588 111.223 21.9588C111.62 21.9588 111.938 21.811 112.18 21.5153C112.413 21.2417 112.527 20.9131 112.527 20.5289ZM113.783 22.8002H112.708L112.651 21.936H112.618C112.274 22.5938 111.69 22.9231 110.868 22.9231C110.211 22.9231 109.664 22.6681 109.232 22.1588C108.798 21.6488 108.582 20.9874 108.582 20.1746C108.582 19.3032 108.817 18.596 109.288 18.0568C109.744 17.5539 110.304 17.3025 110.969 17.3025C111.701 17.3025 112.213 17.546 112.505 18.0339H112.527V14.9418H113.74V21.3503C113.74 21.8745 113.754 22.3581 113.783 22.8017V22.8002ZM122.886 20.1017C122.886 19.6046 122.778 19.1782 122.561 18.8232C122.306 18.3932 121.946 18.1782 121.474 18.1782C120.988 18.1782 120.619 18.3925 120.363 18.8225C120.146 19.1782 120.038 19.611 120.038 20.1231C120.038 20.6203 120.147 21.0467 120.363 21.4017C120.625 21.8317 120.99 22.0467 121.463 22.0467C121.924 22.0467 122.289 21.8281 122.55 21.3903C122.773 21.0281 122.886 20.5989 122.886 20.1017ZM124.141 20.0624C124.141 20.891 123.902 21.5696 123.423 22.1024C122.922 22.6503 122.258 22.9231 121.428 22.9231C120.629 22.9231 119.992 22.6617 119.516 22.136C119.042 21.611 118.805 20.9496 118.805 20.1517C118.805 19.3174 119.049 18.6332 119.539 18.1018C120.029 17.5703 120.688 17.3039 121.519 17.3039C122.317 17.3039 122.961 17.5653 123.447 18.0896C123.909 18.5996 124.141 19.2582 124.141 20.0624ZM130.654 22.801H129.443V19.7153C129.443 18.7646 129.078 18.2889 128.344 18.2889C127.985 18.2889 127.695 18.4189 127.47 18.681C127.248 18.9367 127.129 19.2657 127.134 19.6046V22.7995H125.922V18.9532C125.922 18.4796 125.908 17.9668 125.88 17.4111H126.942L126.999 18.2539H127.033C127.175 17.9918 127.385 17.7753 127.66 17.6032C127.991 17.4012 128.372 17.2963 128.759 17.3003C129.266 17.3003 129.69 17.4625 130.026 17.7882C130.446 18.1875 130.653 18.7825 130.653 19.5739V22.801H130.654ZM138.804 18.3103H137.471V20.9274C137.471 21.5931 137.708 21.9253 138.177 21.9253C138.395 21.9253 138.575 21.9074 138.717 21.8695L138.748 22.7781C138.509 22.8674 138.194 22.9117 137.808 22.9117C137.329 22.9117 136.957 22.7674 136.688 22.4795C136.417 22.1917 136.283 21.7074 136.283 21.0274V18.3103H135.486V17.4132H136.283V16.4261L137.47 16.0718V17.4125H138.804V18.3103H138.805H138.804ZM145.216 22.801H144.004V19.7382C144.004 18.7725 143.639 18.2889 142.907 18.2889C142.346 18.2889 141.962 18.5689 141.751 19.1289C141.712 19.2689 141.692 19.414 141.695 19.5596V22.7995H140.486V14.9418H141.696V18.1882H141.719C142.101 17.5975 142.647 17.3025 143.355 17.3025C143.857 17.3025 144.272 17.4646 144.602 17.7903C145.012 18.196 145.217 18.7996 145.217 19.5974V22.801H145.216ZM150.675 19.5424C150.684 19.1875 150.605 18.881 150.44 18.6225C150.23 18.2903 149.91 18.1232 149.476 18.1232C149.081 18.1232 148.759 18.2853 148.512 18.611C148.307 18.8811 148.183 19.2041 148.153 19.5424H150.675H150.675ZM151.831 19.8524C151.831 20.0667 151.814 20.2474 151.785 20.3953H148.153C148.169 20.9274 148.343 21.3331 148.679 21.6146C148.986 21.866 149.383 21.9917 149.869 21.9917C150.405 21.9917 150.895 21.9074 151.337 21.7367L151.527 22.5688C151.01 22.7902 150.402 22.9017 149.699 22.9017C148.854 22.9017 148.19 22.656 147.709 22.1645C147.226 21.6731 146.987 21.0131 146.987 20.186C146.987 19.3732 147.21 18.6967 147.66 18.1575C148.129 17.5818 148.764 17.2932 149.565 17.2932C150.348 17.2932 150.943 17.5818 151.346 18.1575C151.67 18.6146 151.83 19.1803 151.83 19.8524" fill="white"/>
</svg>
