<svg width="180" height="61" viewBox="0 0 180 61" fill="none" xmlns="http://www.w3.org/2000/svg">
<rect y="0.84375" width="180" height="60.1562" rx="5" fill="#4A99D3"/>
<path fill-rule="evenodd" clip-rule="evenodd" d="M22.9582 16.4066C22.6112 16.7566 22.4951 17.4552 22.4951 18.038V43.5776C22.4951 44.1611 22.7267 44.744 22.9582 45.2104L23.0743 45.3268L37.4281 30.9835V30.6335L22.9589 16.4059L22.9582 16.4066Z" fill="url(#paint0_linear_1_35)"/>
<path fill-rule="evenodd" clip-rule="evenodd" d="M42.174 35.6477L37.4279 30.8663V30.5164L42.174 25.7357L42.2894 25.8529L47.9617 29.1178C49.5824 30.0506 49.5824 31.5671 47.9617 32.4999L42.174 35.6484V35.6477Z" fill="url(#paint1_linear_1_35)"/>
<path fill-rule="evenodd" clip-rule="evenodd" d="M42.2896 35.6477L37.3127 30.7499L22.9589 45.2089C23.6535 45.7925 24.695 45.7925 25.3896 45.3261L42.2896 35.6477Z" fill="url(#paint2_linear_1_35)"/>
<path fill-rule="evenodd" clip-rule="evenodd" d="M42.2894 25.8521L25.2747 16.2894C24.5794 15.823 23.5364 15.823 22.8425 16.4065L37.3118 30.7506L42.2894 25.8521Z" fill="url(#paint3_linear_1_35)"/>
<path fill-rule="evenodd" clip-rule="evenodd" d="M65.904 19.438C65.904 20.2544 65.5564 21.1872 65.0933 21.7701C64.7589 22.1048 64.3618 22.3699 63.9248 22.5501C63.4878 22.7303 63.0196 22.8221 62.5471 22.8201C61.621 22.8201 60.5787 22.4701 60.0002 21.7701C59.1902 21.0701 58.8425 20.138 58.8425 19.2044C58.8425 18.1551 59.1902 17.2223 59.8848 16.6394C60.5787 15.9395 61.5048 15.473 62.431 15.5895C62.8941 15.5895 63.3571 15.7059 63.8202 15.9395C64.1671 16.173 64.6302 16.2895 64.9779 16.7559L64.3987 17.1059C63.8765 16.5832 63.1688 16.2896 62.431 16.2895C61.621 16.2895 60.9264 16.6394 60.3472 17.2223C59.8276 17.7505 59.5366 18.4626 59.5371 19.2044C59.5371 19.9044 59.8848 20.7208 60.3472 21.1872C60.8695 21.7101 61.5775 22.0037 62.3156 22.0036C63.1256 22.0036 63.7048 21.6536 64.2833 21.1872C64.6302 20.7208 64.8618 20.1372 64.9779 19.6708H62.431V18.8551H65.7879C65.904 19.088 65.904 19.3215 65.904 19.438ZM71.2279 16.523H68.1033V18.8551H70.8817V19.6708H68.1033V21.8872H71.2279V22.7029H67.1764V15.7059H71.2279V16.523ZM74.9325 22.7029H74.0064V16.523H72.0387V15.7059H76.7848V16.523H74.8171V22.7036L74.9325 22.7029ZM80.3732 22.7029V15.7059H81.2994V22.5865C81.1833 22.7029 80.3732 22.7029 80.3732 22.7029ZM84.3086 22.7029V16.523H82.3417V15.7059H87.0878V16.523H85.1201C85.2355 16.523 85.2355 22.7036 85.2355 22.7036H84.3094L84.3086 22.7029ZM96.2317 21.7701C94.8425 23.1701 92.6432 23.1701 91.0225 21.7701C90.3504 21.0867 89.9759 20.1641 89.9809 19.2044C89.9809 18.2716 90.3279 17.2223 91.0225 16.6394C92.5278 15.123 94.7271 15.123 96.2317 16.5223C96.9037 17.2057 97.2783 18.1283 97.2732 19.088C97.2732 20.138 96.9263 21.0708 96.2317 21.7701ZM91.7171 21.1872C92.7586 22.2372 94.4955 22.2372 95.4217 21.1872C95.9414 20.6589 96.2324 19.9465 96.2317 19.2044C96.2317 18.5044 95.884 17.8051 95.4217 17.2223C94.3794 16.1723 92.6432 16.1723 91.7171 17.2223C91.1976 17.7505 90.9065 18.4626 90.9071 19.2044C90.9071 19.9044 91.254 20.6044 91.7171 21.1872ZM98.547 22.7029V15.7059H99.704L103.061 21.0701V15.7059H103.987V22.5865H103.061L99.4725 16.8723V22.4694L98.5463 22.7029H98.547Z" fill="white" stroke="white" stroke-width="0.560673"/>
<path fill-rule="evenodd" clip-rule="evenodd" d="M89.8648 32.732C87.0864 32.732 85.0033 34.9477 85.1194 37.7462C85.2348 40.5455 87.3186 42.6447 90.0963 42.5276C92.7586 42.5276 94.8425 40.3119 94.8425 37.6298C94.8425 34.9477 92.7586 32.732 89.8648 32.732ZM89.8648 40.6619C88.2448 40.779 86.8555 39.4962 86.7394 37.8634C86.624 36.2305 87.8971 34.8313 89.5179 34.7148C91.1386 34.5977 92.5278 35.8805 92.6432 37.5134V37.7469C92.7586 39.2626 91.4856 40.6619 89.8648 40.6619ZM79.1002 32.732C76.3217 32.732 74.2379 34.9477 74.354 37.7462C74.354 40.5455 76.5533 42.6447 79.3317 42.5276C81.994 42.5276 84.0771 40.3119 84.0771 37.6298C84.0771 34.9477 81.8779 32.732 79.1002 32.732ZM79.1002 40.6619C77.4794 40.779 76.0902 39.4962 75.9748 37.8634C75.8587 36.2305 77.1317 34.8313 78.7532 34.7148C80.3733 34.5977 81.7625 35.8805 81.8779 37.5134V37.7469C81.8779 39.2626 80.7202 40.6619 79.0994 40.6619H79.1002ZM66.251 34.2477V36.3477H71.3448C71.2286 37.3969 70.8817 38.3298 70.1864 39.0298C69.1448 40.079 67.7556 40.6619 66.3671 40.5455C63.3571 40.429 61.0418 37.7469 61.1579 34.7148C61.2733 31.9156 63.5887 29.4671 66.3671 29.4671C67.7563 29.4671 69.1455 29.9335 70.071 30.9828L71.5756 29.5835C70.1864 28.1835 68.2187 27.4842 66.3671 27.4842C62.1995 27.2514 58.7271 30.6328 58.4949 34.8313C58.2641 39.0298 61.621 42.5276 65.7879 42.7611H66.3671C68.3348 42.8776 70.3025 42.0611 71.6917 40.6619C73.0809 38.9126 73.7748 36.6977 73.4279 34.4813H66.251V34.2484V34.2477ZM118.804 35.8805C118.225 34.0149 116.489 32.8484 114.521 32.732C111.975 32.732 109.89 34.7148 109.89 37.3962V37.6298C109.775 40.3119 111.859 42.5276 114.521 42.644H114.752C116.373 42.644 117.994 41.8283 118.92 40.5455L117.183 39.3791C116.72 40.1955 115.794 40.6619 114.752 40.6619C114.246 40.6632 113.75 40.5218 113.32 40.2538C112.89 39.9858 112.544 39.602 112.322 39.1462L118.919 36.347L118.804 35.8805ZM112.09 37.5134C111.975 35.9977 113.132 34.7148 114.637 34.7148H114.752C115.562 34.5977 116.257 35.0648 116.605 35.7648L112.09 37.5134ZM106.649 42.2947H108.733V27.8342H106.649V42.2947ZM103.177 33.8984C102.366 33.1984 101.441 32.732 100.399 32.732C97.6202 32.8484 95.6532 35.1813 95.7686 37.9798C95.884 40.5455 97.8524 42.5276 100.399 42.644C101.441 42.644 102.366 42.2947 103.061 41.4783H103.177V42.1783C103.409 43.5776 102.482 44.8604 101.093 44.9768H100.63C99.4725 44.9768 98.547 44.2768 98.084 43.2276L96.2317 44.044C96.9263 45.7932 98.6625 46.9596 100.63 46.9596C103.177 46.9596 105.261 45.4432 105.261 41.8283V33.082H103.177V33.8984ZM100.63 40.6626C99.0101 40.5455 97.8517 39.1462 97.8517 37.5134C97.9679 35.9977 99.1255 34.7148 100.63 34.7148C102.136 34.8313 103.409 35.9977 103.292 37.6298V37.7469C103.409 39.379 102.251 40.6619 100.63 40.6619V40.6626ZM128.875 27.8342H123.666V42.2947H125.749V36.8134H128.759C131.19 37.0469 133.273 35.0648 133.505 32.6156C133.736 30.1663 131.769 28.0678 129.337 27.8342H128.874H128.875ZM128.875 34.8313H125.865V29.8171H128.875C130.264 29.8171 131.422 30.9828 131.422 32.2656C131.422 33.6656 130.379 34.8313 128.875 34.8313ZM142.418 32.732C140.798 32.6156 139.292 33.5484 138.598 34.9477L140.566 35.7641C140.913 35.0641 141.723 34.5977 142.534 34.7141C143.692 34.5977 144.733 35.4141 144.849 36.5805V36.697C144.155 36.347 143.344 36.1141 142.534 36.2305C140.566 36.2305 138.366 37.3969 138.366 39.4962C138.482 41.3619 139.987 42.7611 141.955 42.6447H142.071C143.229 42.7611 144.155 42.1783 144.849 41.2447H144.965V42.4111H147.049V36.8134C146.817 34.2484 144.849 32.732 142.418 32.732ZM142.071 40.6619C141.261 40.779 140.566 40.3119 140.335 39.4962C140.335 38.3298 141.492 37.9798 142.65 37.9798C143.344 37.9798 144.039 38.2134 144.617 38.4462C144.502 39.729 143.344 40.6619 142.071 40.6619ZM154.341 33.082L151.794 39.2626L149.248 33.082H146.932L150.752 41.8283L148.553 46.7261H150.868L156.888 33.082H154.341ZM134.894 42.2947H136.978V27.8342H134.894V42.2947Z" fill="white"/>
<defs>
<linearGradient id="paint0_linear_1_35" x1="35.9608" y1="43.7284" x2="13.0056" y2="37.6211" gradientUnits="userSpaceOnUse">
<stop stop-color="#4998D3"/>
<stop offset="0.01" stop-color="#4A99D3"/>
<stop offset="0.26" stop-color="#42BAEB"/>
<stop offset="0.51" stop-color="#41C7F2"/>
<stop offset="0.76" stop-color="#56C9E9"/>
<stop offset="1" stop-color="#5BCAE8"/>
</linearGradient>
<linearGradient id="paint1_linear_1_35" x1="49.9484" y1="30.7331" x2="21.937" y2="30.7331" gradientUnits="userSpaceOnUse">
<stop stop-color="#FEE000"/>
<stop offset="0.41" stop-color="#FEBD11"/>
<stop offset="0.78" stop-color="#FAA51A"/>
<stop offset="1" stop-color="#F99B1C"/>
</linearGradient>
<linearGradient id="paint2_linear_1_35" x1="29.8387" y1="37.6431" x2="11.3605" y2="6.6769" gradientUnits="userSpaceOnUse">
<stop stop-color="#EF4149"/>
<stop offset="1" stop-color="#C31E63"/>
</linearGradient>
<linearGradient id="paint3_linear_1_35" x1="9.67971" y1="44.0018" x2="17.7348" y2="30.1123" gradientUnits="userSpaceOnUse">
<stop stop-color="#32A072"/>
<stop offset="0.07" stop-color="#2CA772"/>
<stop offset="0.48" stop-color="#4BBA71"/>
<stop offset="0.8" stop-color="#5EBD6B"/>
<stop offset="1" stop-color="#66BE69"/>
</linearGradient>
</defs>
</svg>
